<svg xmlns="http://www.w3.org/2000/svg" width="80" height="80">
<g>
    <line x1="40.0" y1="1.0" x2="49.1" y2="6.2" stroke="black"/>
    <line x1="40.0" y1="1.0" x2="31" y2="6" stroke="black"/>
    <line x1="59.5" y1="6.2" x2="64.7" y2="15.3" stroke="black"/>
    <line x1="59.5" y1="6.2" x2="49" y2="6" stroke="black"/>
    <line x1="73.8" y1="20.5" x2="73.8" y2="30.9" stroke="black"/>
    <line x1="73.8" y1="20.5" x2="65" y2="15" stroke="black"/>
    <line x1="79.0" y1="40.0" x2="73.8" y2="49.1" stroke="black"/>
    <line x1="79.0" y1="40.0" x2="74" y2="31" stroke="black"/>
    <line x1="73.8" y1="59.5" x2="64.7" y2="64.7" stroke="black"/>
    <line x1="73.8" y1="59.5" x2="74" y2="49" stroke="black"/>
    <line x1="59.5" y1="73.8" x2="49.1" y2="73.8" stroke="black"/>
    <line x1="59.5" y1="73.8" x2="65" y2="65" stroke="black"/>
    <line x1="40.0" y1="79.0" x2="30.9" y2="73.8" stroke="black"/>
    <line x1="40.0" y1="79.0" x2="49" y2="74" stroke="black"/>
    <line x1="20.5" y1="73.8" x2="15.3" y2="64.7" stroke="black"/>
    <line x1="20.5" y1="73.8" x2="31" y2="74" stroke="black"/>
    <line x1="6.2" y1="59.5" x2="6.2" y2="49.1" stroke="black"/>
    <line x1="6.2" y1="59.5" x2="15" y2="65" stroke="black"/>
    <line x1="1.0" y1="40.0" x2="6.2" y2="30.9" stroke="black"/>
    <line x1="1.0" y1="40.0" x2="6" y2="49" stroke="black"/>
    <line x1="6.2" y1="20.5" x2="15.3" y2="15.3" stroke="black"/>
    <line x1="6.2" y1="20.5" x2="6" y2="31" stroke="black"/>
    <line x1="20.5" y1="6.2" x2="30.9" y2="6.2" stroke="black"/>
    <line x1="20.5" y1="6.2" x2="15" y2="15" stroke="black"/>
    <animate attributeName='x' values="0;100" dur='3s' repeatCount='indefinite'/>
</g>
<g>
    <line x1="49.1" y1="6.2" x2="54.5" y2="14.9" stroke="black"/>
    <line x1="49.1" y1="6.2" x2="40" y2="11" stroke="black"/>
    <line x1="64.7" y1="15.3" x2="65.1" y2="25.5" stroke="black"/>
    <line x1="64.7" y1="15.3" x2="54" y2="15" stroke="black"/>
    <line x1="73.8" y1="30.9" x2="69.0" y2="40.0" stroke="black"/>
    <line x1="73.8" y1="30.9" x2="65" y2="25" stroke="black"/>
    <line x1="73.8" y1="49.1" x2="65.1" y2="54.5" stroke="black"/>
    <line x1="73.8" y1="49.1" x2="69" y2="40" stroke="black"/>
    <line x1="64.7" y1="64.7" x2="54.5" y2="65.1" stroke="black"/>
    <line x1="64.7" y1="64.7" x2="65" y2="54" stroke="black"/>
    <line x1="49.1" y1="73.8" x2="40.0" y2="69.0" stroke="black"/>
    <line x1="49.1" y1="73.8" x2="54" y2="65" stroke="black"/>
    <line x1="30.9" y1="73.8" x2="25.5" y2="65.1" stroke="black"/>
    <line x1="30.9" y1="73.8" x2="40" y2="69" stroke="black"/>
    <line x1="15.3" y1="64.7" x2="14.9" y2="54.5" stroke="black"/>
    <line x1="15.3" y1="64.7" x2="25" y2="65" stroke="black"/>
    <line x1="6.2" y1="49.1" x2="11.0" y2="40.0" stroke="black"/>
    <line x1="6.2" y1="49.1" x2="15" y2="55" stroke="black"/>
    <line x1="6.2" y1="30.9" x2="14.9" y2="25.5" stroke="black"/>
    <line x1="6.2" y1="30.9" x2="11" y2="40" stroke="black"/>
    <line x1="15.3" y1="15.3" x2="25.5" y2="14.9" stroke="black"/>
    <line x1="15.3" y1="15.3" x2="15" y2="26" stroke="black"/>
    <line x1="30.9" y1="6.2" x2="40.0" y2="11.0" stroke="black"/>
    <line x1="30.9" y1="6.2" x2="25" y2="15" stroke="black"/>
</g>
<g>
    <line x1="40.0" y1="11.0" x2="46.0" y2="17.8" stroke="black"/>
    <line x1="40.0" y1="11.0" x2="34" y2="18" stroke="black"/>
    <line x1="54.5" y1="14.9" x2="56.3" y2="23.7" stroke="black"/>
    <line x1="54.5" y1="14.9" x2="46" y2="18" stroke="black"/>
    <line x1="65.1" y1="25.5" x2="62.2" y2="34.0" stroke="black"/>
    <line x1="65.1" y1="25.5" x2="56" y2="24" stroke="black"/>
    <line x1="69.0" y1="40.0" x2="62.2" y2="46.0" stroke="black"/>
    <line x1="69.0" y1="40.0" x2="62" y2="34" stroke="black"/>
    <line x1="65.1" y1="54.5" x2="56.3" y2="56.3" stroke="black"/>
    <line x1="65.1" y1="54.5" x2="62" y2="46" stroke="black"/>
    <line x1="54.5" y1="65.1" x2="46.0" y2="62.2" stroke="black"/>
    <line x1="54.5" y1="65.1" x2="56" y2="56" stroke="black"/>
    <line x1="40.0" y1="69.0" x2="34.0" y2="62.2" stroke="black"/>
    <line x1="40.0" y1="69.0" x2="46" y2="62" stroke="black"/>
    <line x1="25.5" y1="65.1" x2="23.7" y2="56.3" stroke="black"/>
    <line x1="25.5" y1="65.1" x2="34" y2="62" stroke="black"/>
    <line x1="14.9" y1="54.5" x2="17.8" y2="46.0" stroke="black"/>
    <line x1="14.9" y1="54.5" x2="24" y2="56" stroke="black"/>
    <line x1="11.0" y1="40.0" x2="17.8" y2="34.0" stroke="black"/>
    <line x1="11.0" y1="40.0" x2="18" y2="46" stroke="black"/>
    <line x1="14.9" y1="25.5" x2="23.7" y2="23.7" stroke="black"/>
    <line x1="14.9" y1="25.5" x2="18" y2="34" stroke="black"/>
    <line x1="25.5" y1="14.9" x2="34.0" y2="17.8" stroke="black"/>
    <line x1="25.5" y1="14.9" x2="24" y2="24" stroke="black"/>
</g>
</svg>
